<svg width="309" height="309" viewBox="0 0 309 309" fill="none" xmlns="http://www.w3.org/2000/svg">
<path fill-rule="evenodd" clip-rule="evenodd" d="M68.4423 26.0393C93.7686 9.06174 123.545 0 154.005 0C194.846 0 234.015 16.275 262.896 45.2451C291.777 74.2153 308.005 113.508 308.01 154.481C308.013 185.039 298.984 214.911 282.065 240.321C265.145 265.731 241.094 285.537 212.953 297.234C184.813 308.931 153.847 311.993 123.972 306.034C94.0966 300.074 66.6537 285.361 45.1138 263.755C23.5739 242.148 8.90442 214.619 2.96053 184.649C-2.98335 154.678 0.0653089 123.612 11.721 95.3799C23.3767 67.1476 43.1159 43.0168 68.4423 26.0393ZM180.336 140.561C212.051 151.8 224.284 177.329 224.284 215.345V255.047H99.593V48.1729H154.908C175.847 48.1729 184.602 51.8575 194.493 59.5386C208.902 70.8654 211.166 87.3096 211.166 95.5561C211.299 106.453 207.484 117.028 200.43 125.316C195.128 132.023 188.214 137.269 180.336 140.561ZM196.038 211.485C196.038 168.722 182.396 145.328 147.339 145.328V134.927H147.553C152.962 134.963 158.306 133.751 163.173 131.385C168.041 129.018 172.301 125.561 175.624 121.28C182.066 113.463 183.387 106.093 183.688 99.5137H147.582V89.3566H183.378C182.573 82.4432 179.883 75.8863 175.604 70.4072C167.413 60.1917 155.812 58.4761 148.175 58.4761H127.771V243.779H147.582V174.57H173.554V243.652H196.038V211.485Z" fill="#0F2D69"/>
</svg>
